<svg width="52" height="50" viewBox="0 0 52 50" fill="none" xmlns="http://www.w3.org/2000/svg">
<path opacity="0.5" d="M51.3818 24.0717C51.3818 23.6948 51.3484 23.3179 51.3067 22.9411C51.2539 22.466 51.0288 22.3227 50.5979 22.259C48.8383 21.9936 47.0842 21.7096 45.3163 21.4628C45.1307 21.461 44.9514 21.3979 44.809 21.2842C44.6666 21.1705 44.5698 21.0132 44.5352 20.8391C44.0153 19.2998 43.4232 17.7817 42.7922 16.2796C42.7152 16.1445 42.6907 15.9877 42.7233 15.8371C42.7559 15.6865 42.8433 15.5517 42.9701 15.4568C44.3406 14.0529 45.6999 12.6356 47.0981 11.1892C45.7165 9.10945 44.0008 7.25016 42.0139 5.67954L36.7323 9.39512L30.9475 6.70132C30.8836 5.23101 30.8224 3.53777 30.7335 1.84452C30.6612 0.456489 30.903 0.586533 29.3658 0.350328C29.2183 0.315584 29.0749 0.266681 28.9377 0.204362L24.9153 0C24.6198 0.0585238 24.3192 0.091389 24.0175 0.0981962C23.2475 0.0477705 22.8833 0.297245 22.786 1.09344C22.5803 2.75484 22.2662 4.40562 21.9521 6.05374C21.9156 6.17726 21.8519 6.29189 21.7651 6.38987C21.6783 6.48785 21.5705 6.5669 21.4489 6.6217C20.0312 7.13658 18.5635 7.53733 17.1819 8.12121C16.5064 8.40784 16.159 8.29372 15.6781 7.85581C14.3048 6.59251 12.8816 5.38228 11.336 4.02609L5.54848 8.89617C5.82646 9.27569 5.98491 9.49598 6.1517 9.7136C7.17466 11.0406 8.1865 12.3835 9.23171 13.6946C9.52915 14.0688 9.49301 14.3236 9.27897 14.7323C8.55066 16.1389 7.91409 17.588 7.19412 18.9972C7.11453 19.1189 7.00814 19.2224 6.88237 19.3008C6.75659 19.3792 6.61445 19.4305 6.46581 19.4511C5.0509 19.5413 3.63041 19.5572 2.21272 19.6209C1.06744 19.6714 0.642132 19.6952 0.380831 20.1172L0.158451 24.0982L0 26.9327C0.155669 27.2538 0.508703 27.2989 1.3899 27.4157C2.94937 27.6227 4.50883 27.8324 6.05996 28.0925C6.20183 28.1337 6.33243 28.2044 6.44246 28.2993C6.55249 28.3943 6.63924 28.5112 6.69653 28.6418C7.2108 30.0086 7.64445 31.4179 8.20041 32.7953C8.36719 33.2226 8.38388 33.4668 8.03084 33.8118C6.64094 35.1892 5.2705 36.6038 3.9084 37.9892C4.74234 39.5497 7.72228 42.8009 9.07604 43.5891C10.6188 42.501 12.2089 41.4128 13.7544 40.2663C14.2354 39.908 14.5217 39.8894 15.0749 40.1946C16.3741 40.8903 17.7123 41.5176 19.0833 42.0737C19.6393 42.3046 19.9506 42.5142 19.9562 43.1591C19.9562 44.8338 20.0868 46.5085 20.1285 48.1831C20.1285 48.6317 20.2953 48.8811 20.7707 48.9077C23.0056 49.0404 25.2415 49.1704 27.4783 49.2978C28.0343 49.3323 28.0037 48.9103 28.0593 48.5945C28.3373 47.0021 28.6152 45.3858 28.8376 43.7722C28.921 43.1671 29.1712 42.915 29.7967 42.7504C31.4506 42.3125 33.0768 41.7738 34.8364 41.235L39.5399 45.415C41.7484 44.0862 43.7037 42.4079 45.3218 40.4521L41.5941 35.6032C42.4475 33.8224 43.262 32.1929 44.0042 30.5209C44.2155 30.0378 44.4434 29.9131 44.941 29.9025C46.67 29.8653 48.3991 29.7751 50.1253 29.7273C50.5006 29.7273 50.7647 29.6689 50.8509 29.2576C51.2364 27.5542 51.4145 25.8141 51.3818 24.0717ZM37.2048 25.2288C37.0463 28.0498 35.7614 30.7054 33.6145 32.6495C31.4676 34.5935 28.622 35.6782 25.6631 35.6802C25.4546 35.6802 25.2461 35.6802 25.0349 35.6643C22.0819 35.5129 19.3018 34.2872 17.2663 32.2392C15.2307 30.1911 14.0944 27.4763 14.0908 24.6529C14.0908 24.4583 14.0964 24.2645 14.1075 24.0717V24.0478C14.2696 21.2258 15.5587 18.5705 17.7096 16.6286C19.8604 14.6868 22.7092 13.6061 25.6694 13.6092C28.6296 13.6123 31.4759 14.6988 33.6224 16.6451C35.7688 18.5914 37.0519 21.2493 37.2076 24.0717C37.2076 24.2575 37.2076 24.4432 37.2076 24.629C37.2076 24.8148 37.216 25.0271 37.2048 25.2315V25.2288Z" fill="#F39892"/>
</svg>
