<svg width="48" height="46" viewBox="0 0 48 46" fill="none" xmlns="http://www.w3.org/2000/svg">
<path opacity="0.6" d="M46.3944 13.8113C46.3684 13.7307 46.3252 13.656 46.2675 13.5919C46.2098 13.5278 46.1389 13.4756 46.0591 13.4385C45.9792 13.4014 45.8922 13.3804 45.8034 13.3765C45.7146 13.3726 45.6259 13.3861 45.5428 13.4161C43.8874 13.7097 42.226 13.9807 40.5705 14.2686C40.4045 14.3221 40.2241 14.3193 40.0601 14.2605C39.8961 14.2018 39.7586 14.0909 39.6713 13.9468C38.9151 13.0039 38.1231 12.0836 37.3192 11.1859L36.6224 10.4237C36.5102 10.3258 36.4374 10.1939 36.4168 10.0506C36.3961 9.90736 36.4288 9.76174 36.5093 9.63889C37.2775 7.99026 38.0278 6.33035 38.8019 4.6309C36.8881 3.19375 34.748 2.05062 32.46 1.24331C31.269 2.89194 30.078 4.52929 28.9466 6.09323L22.9024 5.42135C22.3665 4.13971 21.7591 2.65481 21.116 1.18121C20.5919 -0.0270324 20.854 0.0124868 19.401 0.26091C19.2583 0.272196 19.1149 0.272196 18.9722 0.26091L15.3159 1.26591C15.0734 1.40913 14.816 1.52832 14.5477 1.62161C13.8391 1.80793 13.6009 2.13538 13.7736 2.86936C14.0237 3.94209 14.2262 5.02612 14.4167 6.11015C14.5001 6.57312 14.5775 7.04176 14.6549 7.51038C14.6639 7.63102 14.645 7.75204 14.5998 7.86511C14.5546 7.97819 14.484 8.08061 14.3929 8.1653C13.2972 9.04043 12.1182 9.83089 11.0761 10.7625C10.9056 10.9588 10.6642 11.0878 10.3988 11.1243C10.1334 11.1608 9.8632 11.1023 9.64093 10.9601C8.00334 10.2487 6.33599 9.5994 4.5138 8.85413L0.940879 14.884L1.74477 15.4486C3.09653 16.3238 4.43637 17.2102 5.80003 18.0627C5.9635 18.1502 6.09047 18.2881 6.1598 18.4534C6.22914 18.6188 6.23667 18.8017 6.18116 18.9717C5.9906 20.434 5.89532 21.9076 5.71668 23.3699C5.68493 23.5006 5.6238 23.6233 5.53747 23.7295C5.45115 23.8357 5.34165 23.923 5.21647 23.9854C3.97786 24.4879 2.71543 24.9226 1.47681 25.3969C0.470441 25.7808 0.0952779 25.9276 0 26.3793L1.8877 32.5334C2.13781 32.7705 2.48319 32.7084 3.28114 32.5334C4.32919 32.3358 5.3832 32.1325 6.43721 31.9688L7.66987 31.7655C7.80944 31.761 7.94837 31.7855 8.07694 31.8371C8.20552 31.8888 8.32063 31.9665 8.41423 32.0648C9.33724 33.1375 10.2007 34.2611 11.1237 35.3225C11.2675 35.436 11.3644 35.594 11.3971 35.7686C11.4298 35.9433 11.3962 36.1232 11.3023 36.2767C10.5044 37.9084 9.75408 39.5683 8.99185 41.2C10.2424 42.3292 13.9701 44.3335 15.435 44.6328C16.4593 43.21 17.5192 41.7759 18.5256 40.2966C18.6212 40.0959 18.7939 39.9374 19.0087 39.8534C19.2234 39.7695 19.4638 39.7664 19.6808 39.8449C21.0599 40.0776 22.4515 40.2379 23.8493 40.3249C24.415 40.3644 24.7663 40.4547 24.9807 41.025C25.5404 42.5099 26.1716 43.9552 26.7671 45.4288C26.922 45.8241 27.1423 45.9934 27.571 45.8805L33.6926 44.2432C34.1929 44.1077 34.0321 43.7407 33.9785 43.4414C33.6986 41.9396 33.4247 40.4321 33.0912 38.9246C33.0147 38.6994 33.0254 38.4557 33.1214 38.2374C33.2175 38.019 33.3926 37.8403 33.6152 37.7333L33.8237 37.5922C35.0801 36.7509 36.2949 35.842 37.6169 34.8934L43.1847 37.2083C44.7196 35.3741 45.9155 33.3067 46.7219 31.0937L41.8091 27.898C41.9878 26.0687 42.1902 24.3806 42.2915 22.6812C42.2738 22.4938 42.3287 22.3067 42.446 22.155C42.5633 22.0033 42.7349 21.8973 42.9286 21.8568C44.459 21.2922 45.9716 20.7276 47.502 20.163C47.8295 20.0445 48.0498 19.9259 47.9903 19.5307C47.7684 17.5583 47.2302 15.6296 46.3944 13.8113ZM29.8875 31.6921C28.5432 32.4956 27.0304 33.0115 25.4543 33.204C23.8783 33.3966 22.2769 33.2611 20.7618 32.8069C19.2466 32.3528 17.8541 31.5909 16.6811 30.5745C15.5082 29.558 14.583 28.3114 13.9701 26.9213C12.9233 24.5701 12.8307 21.9349 13.7102 19.5229C14.5897 17.1109 16.3791 15.0926 18.734 13.8565C19.4512 13.4753 20.2126 13.174 21.0028 12.9587C23.5356 12.2589 26.2499 12.4505 28.6454 13.4983C31.041 14.546 32.9565 16.3792 34.0391 18.6603C35.1216 20.9413 35.2983 23.5165 34.5364 25.9112C33.7746 28.306 32.1257 30.359 29.8934 31.6921H29.8875Z" fill="#4476BD"/>
</svg>
